<?xml version="1.0" standalone="no"?>
<!DOCTYPE svg PUBLIC "-//W3C//DTD SVG 20010904//EN"
 "http://www.w3.org/TR/2001/REC-SVG-20010904/DTD/svg10.dtd">
<svg version="1.0" xmlns="http://www.w3.org/2000/svg"
 width="408.000000pt" height="408.000000pt" viewBox="0 0 408.000000 408.000000"
 preserveAspectRatio="xMidYMid meet">
<metadata>
Created by potrace 1.14, written by Peter Selinger 2001-2017
</metadata>
<g transform="translate(0.000000,408.000000) scale(0.100000,-0.100000)"
fill="#000000" stroke="none">
<path d="M3490 3582 c-91 -55 -365 -218 -610 -364 -245 -146 -643 -383 -885
-528 l-440 -262 -80 13 c-109 17 -320 15 -430 -4 -284 -51 -510 -185 -611
-365 -40 -72 -55 -144 -52 -256 2 -58 0 -102 -3 -100 -4 2 -87 -43 -184 -102
l-176 -106 31 -51 c17 -29 38 -67 47 -84 9 -18 22 -33 29 -33 6 0 64 29 128
65 65 36 120 64 124 61 10 -6 6 -516 -4 -525 -5 -5 -82 -41 -172 -81 -89 -40
-165 -76 -167 -81 -3 -4 14 -48 37 -98 l43 -91 155 70 c85 39 160 69 166 68 6
-2 31 -28 55 -58 83 -102 274 -210 454 -255 521 -132 1095 77 1196 435 8 31
13 139 14 347 0 166 3 304 6 307 2 2 87 41 189 86 102 45 210 93 240 107 30
14 332 149 670 300 338 151 633 283 655 293 22 10 66 30 98 44 31 13 57 27 57
29 0 7 -76 177 -82 183 -3 2 -135 -53 -294 -124 -159 -71 -437 -196 -619 -277
-419 -187 -369 -165 -658 -294 -137 -61 -252 -109 -256 -107 -4 3 -7 45 -6 93
5 192 -90 347 -284 464 -44 27 -57 39 -48 46 6 6 192 117 412 248 220 131 523
312 673 401 151 90 278 164 283 164 5 0 9 3 9 8 0 4 10 12 23 18 55 26 532
315 535 324 4 12 -86 170 -97 170 -4 0 -81 -44 -171 -98z"/>
</g>
</svg>
